<svg xmlns="http://www.w3.org/2000/svg" xmlns:xlink="http://www.w3.org/1999/xlink" version="1.1" id="Layer_1" x="0px" y="0px" viewBox="0 0 100 100" style="enable-background:new 0 0 100 100;" xml:space="preserve" height="100px" width="100px">
<path style="fill:#1E1B1C;" d="M71.499,25.582c0.97,0,1.722,0.32,2.286,0.883c2.182,2.182,0.705,7.199-8.825,16.728  c-0.359,0.359-0.73,0.724-1.107,1.092l3.972,26.009l-3.886,3.886L50.88,55.596c-2.168,1.7-4.266,3.244-6.154,4.513l0.661,10.362  l-1.602,1.602l-4.63-8.829c-0.605,0.227-1.116,0.348-1.515,0.348c-0.322,0-0.571-0.079-0.738-0.246  c-0.373-0.373-0.308-1.159,0.103-2.253l-8.829-4.63l1.602-1.602l10.362,0.661c1.269-1.888,2.813-3.986,4.513-6.154L26.069,36.311  l3.886-3.886l26.009,3.972c0.368-0.378,0.732-0.748,1.092-1.107C64.126,28.22,68.711,25.582,71.499,25.582 M71.499,22.926  C71.499,22.926,71.499,22.926,71.499,22.926c-3.981,0-9.166,3.332-16.321,10.486c-0.052,0.052-0.103,0.103-0.155,0.155L30.356,29.8  c-0.134-0.02-0.268-0.03-0.401-0.03c-0.699,0-1.376,0.276-1.878,0.778l-3.886,3.886c-0.554,0.554-0.836,1.326-0.768,2.107  c0.068,0.781,0.477,1.493,1.119,1.943L40.86,49.949c-0.738,0.983-1.425,1.927-2.055,2.828l-8.857-0.565  c-0.057-0.004-0.113-0.005-0.169-0.005c-0.702,0-1.378,0.278-1.877,0.778l-1.602,1.602c-0.597,0.597-0.875,1.443-0.747,2.278  c0.127,0.835,0.644,1.559,1.392,1.952l7.065,3.705c-0.027,1.094,0.313,1.999,1.018,2.704c0.467,0.467,1.299,1.023,2.615,1.023  c0.03,0,0.061,0,0.091-0.001l3.702,7.06c0.392,0.748,1.117,1.265,1.952,1.392c0.133,0.02,0.267,0.03,0.4,0.03  c0.699,0,1.376-0.276,1.878-0.778l1.602-1.602c0.54-0.54,0.821-1.285,0.772-2.047l-0.565-8.857c0.901-0.631,1.845-1.317,2.828-2.055  l11.466,16.317c0.451,0.642,1.162,1.051,1.943,1.119c0.077,0.007,0.153,0.01,0.229,0.01c0.701,0,1.377-0.278,1.877-0.778  l3.886-3.886c0.597-0.597,0.875-1.443,0.747-2.279l-3.767-24.668c0.052-0.052,0.104-0.103,0.155-0.155  c3.625-3.625,14.654-14.654,8.825-20.484C74.576,23.501,73.136,22.926,71.499,22.926L71.499,22.926z"/>
</svg>