<svg xmlns="http://www.w3.org/2000/svg" xmlns:xlink="http://www.w3.org/1999/xlink" version="1.1" id="Layer_3" x="0px" y="0px" viewBox="0 0 100 100" enable-background="new 0 0 100 100" xml:space="preserve" height="100px" width="100px">
<path d="M41,32c-3-0.1-6,0-9,0.1c0.7-3.1,2.8-6.9,4.7-9.6c2.7-3.8,4.8-5.6,11.3-5.2c6.5,0.4,5.6,2.4,6.1,4.5c0.5,1.7,0.2,9.1,0,11.8  C49.8,32.7,45.3,32.2,41,32z"/>
<path d="M31.7,33.4C31.7,33.4,31.7,33.3,31.7,33.4c7.4-0.2,14.7-0.1,22.1,1.3c-0.1,0-0.1,0-0.2,0c9.1,1.7,17.9,4.7,23.8,8.4  c1.5-3.1,3.9-5.1,6.5-5.3c0.1,0,5.2,0,5.4,0c4.8,0,8.7,6.2,8.7,13.9s-3.9,14-8.8,14c-0.2,0-5.3,0-5.4,0c-2.2-0.2-4.3-1.6-5.9-3.9  c-4.5,2.9-11,5.1-18,6.9c1.5,3.5,3.4,8.2,3.9,9.6c0.3,0.9,0.6,2.4-1.7,3.5c-2.4,1.2-4.7,1.5-7.1-0.3c-2-1.6-7.4-6.6-11.2-10.1  c-2.1,0.2-4.2,0.3-6.2,0.3C17.9,71.6,2,63,2,52.4C2,42.8,14.8,34.9,31.7,33.4z M82.7,63.4c3.7,0,6.5-4.6,6.5-10.8s-3-11.2-6.7-11.2  c-1.4,0-2.6,0.7-3.7,1.9c0.6,0,1.2,0,1.2,0c3.2,0,5.8,4.1,5.8,9.1s-2.6,9.1-5.8,9.1c0,0-0.5,0-1.2,0C80,62.7,81.2,63.4,82.7,63.4z   M64.6,52.5c0-3.2-2.2-5.8-4.9-5.8s-4.9,2.6-4.9,5.8s2.2,5.8,4.9,5.8C62.4,58.2,64.6,55.7,64.6,52.5z M42.5,70.4  c0.1,0.1,0.2,0.1,0.3,0.1c0.2,0,0.4-0.1,0.5-0.3c0.2-0.3,0.1-0.6-0.2-0.8c0,0-0.3-0.2-0.6-0.5s-0.6-0.8-0.6-1.3  c0-0.3,0.1-0.7,0.4-1.2c0.3-0.5,2.3-1.4,4.5-1.9s4.7-0.8,6.2-0.8c0.4,0,0.8,0,1,0.1c1.9,0.3,3.6,2.4,4,3.5l0,0  c0.1,0.3,0.4,0.4,0.7,0.3c0.3,0.1,0.4-0.3,0.3-0.6c-0.6-1.4-2.3-3.8-4.8-4.3c-0.3-0.1-0.7-0.1-1.2-0.1c-1.7,0-4.2,0.3-6.5,0.9  s-4.3,1.2-5.2,2.3c-0.4,0.6-0.6,1.2-0.6,1.8C40.8,69.5,42.4,70.4,42.5,70.4z M40.5,57.9c2.7,0,4.9-2.6,4.9-5.8s-2.2-5.8-4.9-5.8  s-4.9,2.6-4.9,5.8C35.6,55.3,37.8,57.9,40.5,57.9z M24.3,57.9c2.7,0,4.9-2.6,4.9-5.8s-2.2-5.8-4.9-5.8c-2.7,0-4.9,2.6-4.9,5.8  C19.4,55.3,21.6,57.9,24.3,57.9z"/>
</svg>